<mxfile host="app.diagrams.net" modified="2023-12-16T01:10:41.670Z" agent="Mozilla/5.0 (Windows NT 10.0; Win64; x64) AppleWebKit/537.36 (KHTML, like Gecko) Chrome/120.0.0.0 Safari/537.36" etag="Yq7hmM7TS-Jvsr0lt_7O" version="22.1.11" type="device">
  <diagram name="PÃ¡gina-1" id="cOmgfzCyHrouzh4TuyIU">
    <mxGraphModel dx="724" dy="390" grid="1" gridSize="10" guides="1" tooltips="1" connect="1" arrows="1" fold="1" page="1" pageScale="1" pageWidth="827" pageHeight="1169" math="0" shadow="0">
      <root>
        <mxCell id="0" />
        <mxCell id="1" parent="0" />
        <mxCell id="7n_2hDon2xtBZJ7j7-mJ-5" style="edgeStyle=orthogonalEdgeStyle;rounded=0;orthogonalLoop=1;jettySize=auto;html=1;entryX=0;entryY=0.5;entryDx=0;entryDy=0;endArrow=none;endFill=0;" edge="1" parent="1" source="7n_2hDon2xtBZJ7j7-mJ-1" target="7n_2hDon2xtBZJ7j7-mJ-4">
          <mxGeometry relative="1" as="geometry" />
        </mxCell>
        <mxCell id="7n_2hDon2xtBZJ7j7-mJ-26" value="&lt;span style=&quot;font-size: 20px;&quot;&gt;1&lt;/span&gt;" style="edgeLabel;html=1;align=center;verticalAlign=middle;resizable=0;points=[];fontSize=11;fontFamily=Helvetica;fontColor=default;" vertex="1" connectable="0" parent="7n_2hDon2xtBZJ7j7-mJ-5">
          <mxGeometry x="-0.0841" relative="1" as="geometry">
            <mxPoint as="offset" />
          </mxGeometry>
        </mxCell>
        <mxCell id="7n_2hDon2xtBZJ7j7-mJ-13" style="shape=connector;rounded=0;orthogonalLoop=1;jettySize=auto;html=1;entryX=0.5;entryY=1;entryDx=0;entryDy=0;labelBackgroundColor=default;strokeColor=default;align=center;verticalAlign=middle;fontFamily=Helvetica;fontSize=11;fontColor=default;endArrow=none;endFill=0;" edge="1" parent="1" source="7n_2hDon2xtBZJ7j7-mJ-1" target="7n_2hDon2xtBZJ7j7-mJ-9">
          <mxGeometry relative="1" as="geometry" />
        </mxCell>
        <mxCell id="7n_2hDon2xtBZJ7j7-mJ-14" style="edgeStyle=none;shape=connector;rounded=0;orthogonalLoop=1;jettySize=auto;html=1;entryX=0.5;entryY=1;entryDx=0;entryDy=0;labelBackgroundColor=default;strokeColor=default;align=center;verticalAlign=middle;fontFamily=Helvetica;fontSize=11;fontColor=default;endArrow=none;endFill=0;" edge="1" parent="1" source="7n_2hDon2xtBZJ7j7-mJ-1" target="7n_2hDon2xtBZJ7j7-mJ-8">
          <mxGeometry relative="1" as="geometry" />
        </mxCell>
        <mxCell id="7n_2hDon2xtBZJ7j7-mJ-15" style="edgeStyle=none;shape=connector;rounded=0;orthogonalLoop=1;jettySize=auto;html=1;entryX=0.5;entryY=1;entryDx=0;entryDy=0;labelBackgroundColor=default;strokeColor=default;align=center;verticalAlign=middle;fontFamily=Helvetica;fontSize=11;fontColor=default;endArrow=none;endFill=0;" edge="1" parent="1" source="7n_2hDon2xtBZJ7j7-mJ-1" target="7n_2hDon2xtBZJ7j7-mJ-11">
          <mxGeometry relative="1" as="geometry" />
        </mxCell>
        <mxCell id="7n_2hDon2xtBZJ7j7-mJ-1" value="&lt;span style=&quot;font-size: 19px;&quot;&gt;A&lt;/span&gt;" style="whiteSpace=wrap;html=1;align=center;" vertex="1" parent="1">
          <mxGeometry x="80" y="120" width="100" height="40" as="geometry" />
        </mxCell>
        <mxCell id="7n_2hDon2xtBZJ7j7-mJ-3" value="&lt;span style=&quot;font-size: 19px;&quot;&gt;B&lt;/span&gt;" style="whiteSpace=wrap;html=1;align=center;" vertex="1" parent="1">
          <mxGeometry x="440" y="120" width="100" height="40" as="geometry" />
        </mxCell>
        <mxCell id="7n_2hDon2xtBZJ7j7-mJ-7" style="edgeStyle=orthogonalEdgeStyle;shape=link;rounded=0;orthogonalLoop=1;jettySize=auto;html=1;entryX=0;entryY=0.5;entryDx=0;entryDy=0;labelBackgroundColor=default;strokeColor=default;align=center;verticalAlign=middle;fontFamily=Helvetica;fontSize=11;fontColor=default;endArrow=none;endFill=0;" edge="1" parent="1" source="7n_2hDon2xtBZJ7j7-mJ-4" target="7n_2hDon2xtBZJ7j7-mJ-3">
          <mxGeometry relative="1" as="geometry" />
        </mxCell>
        <mxCell id="7n_2hDon2xtBZJ7j7-mJ-25" value="&lt;font style=&quot;font-size: 20px;&quot;&gt;N&lt;/font&gt;" style="edgeLabel;html=1;align=center;verticalAlign=middle;resizable=0;points=[];fontSize=11;fontFamily=Helvetica;fontColor=default;" vertex="1" connectable="0" parent="7n_2hDon2xtBZJ7j7-mJ-7">
          <mxGeometry x="-0.1126" y="1" relative="1" as="geometry">
            <mxPoint as="offset" />
          </mxGeometry>
        </mxCell>
        <mxCell id="7n_2hDon2xtBZJ7j7-mJ-4" value="R1" style="shape=rhombus;perimeter=rhombusPerimeter;whiteSpace=wrap;html=1;align=center;" vertex="1" parent="1">
          <mxGeometry x="280" y="122.5" width="70" height="35" as="geometry" />
        </mxCell>
        <mxCell id="7n_2hDon2xtBZJ7j7-mJ-8" value="A2" style="ellipse;whiteSpace=wrap;html=1;align=center;fontFamily=Helvetica;fontSize=11;fontColor=default;" vertex="1" parent="1">
          <mxGeometry x="100" y="40" width="60" height="30" as="geometry" />
        </mxCell>
        <mxCell id="7n_2hDon2xtBZJ7j7-mJ-9" value="A1" style="ellipse;whiteSpace=wrap;html=1;align=center;fontStyle=4;fontFamily=Helvetica;fontSize=11;fontColor=default;" vertex="1" parent="1">
          <mxGeometry x="30" y="50" width="60" height="30" as="geometry" />
        </mxCell>
        <mxCell id="7n_2hDon2xtBZJ7j7-mJ-11" value="A3" style="ellipse;whiteSpace=wrap;html=1;align=center;fontFamily=Helvetica;fontSize=11;fontColor=default;" vertex="1" parent="1">
          <mxGeometry x="170" y="50" width="60" height="30" as="geometry" />
        </mxCell>
        <mxCell id="7n_2hDon2xtBZJ7j7-mJ-20" style="edgeStyle=none;shape=connector;rounded=0;orthogonalLoop=1;jettySize=auto;html=1;entryX=0.25;entryY=0;entryDx=0;entryDy=0;labelBackgroundColor=default;strokeColor=default;align=center;verticalAlign=middle;fontFamily=Helvetica;fontSize=11;fontColor=default;endArrow=none;endFill=0;" edge="1" parent="1" source="7n_2hDon2xtBZJ7j7-mJ-16" target="7n_2hDon2xtBZJ7j7-mJ-3">
          <mxGeometry relative="1" as="geometry" />
        </mxCell>
        <mxCell id="7n_2hDon2xtBZJ7j7-mJ-16" value="B1" style="ellipse;whiteSpace=wrap;html=1;align=center;fontStyle=4;fontFamily=Helvetica;fontSize=11;fontColor=default;" vertex="1" parent="1">
          <mxGeometry x="410" y="60" width="60" height="30" as="geometry" />
        </mxCell>
        <mxCell id="7n_2hDon2xtBZJ7j7-mJ-21" style="edgeStyle=none;shape=connector;rounded=0;orthogonalLoop=1;jettySize=auto;html=1;entryX=0.5;entryY=0;entryDx=0;entryDy=0;labelBackgroundColor=default;strokeColor=default;align=center;verticalAlign=middle;fontFamily=Helvetica;fontSize=11;fontColor=default;endArrow=none;endFill=0;" edge="1" parent="1" source="7n_2hDon2xtBZJ7j7-mJ-17" target="7n_2hDon2xtBZJ7j7-mJ-3">
          <mxGeometry relative="1" as="geometry" />
        </mxCell>
        <mxCell id="7n_2hDon2xtBZJ7j7-mJ-17" value="B2" style="ellipse;whiteSpace=wrap;html=1;align=center;fontFamily=Helvetica;fontSize=11;fontColor=default;" vertex="1" parent="1">
          <mxGeometry x="480" y="50" width="60" height="30" as="geometry" />
        </mxCell>
        <mxCell id="7n_2hDon2xtBZJ7j7-mJ-22" style="edgeStyle=none;shape=connector;rounded=0;orthogonalLoop=1;jettySize=auto;html=1;labelBackgroundColor=default;strokeColor=default;align=center;verticalAlign=middle;fontFamily=Helvetica;fontSize=11;fontColor=default;endArrow=none;endFill=0;" edge="1" parent="1" source="7n_2hDon2xtBZJ7j7-mJ-18" target="7n_2hDon2xtBZJ7j7-mJ-3">
          <mxGeometry relative="1" as="geometry" />
        </mxCell>
        <mxCell id="7n_2hDon2xtBZJ7j7-mJ-18" value="B3" style="ellipse;whiteSpace=wrap;html=1;align=center;fontFamily=Helvetica;fontSize=11;fontColor=default;" vertex="1" parent="1">
          <mxGeometry x="550" y="70" width="60" height="30" as="geometry" />
        </mxCell>
        <mxCell id="7n_2hDon2xtBZJ7j7-mJ-23" style="edgeStyle=none;shape=connector;rounded=0;orthogonalLoop=1;jettySize=auto;html=1;entryX=1;entryY=0.5;entryDx=0;entryDy=0;labelBackgroundColor=default;strokeColor=default;align=center;verticalAlign=middle;fontFamily=Helvetica;fontSize=11;fontColor=default;endArrow=none;endFill=0;" edge="1" parent="1" source="7n_2hDon2xtBZJ7j7-mJ-19" target="7n_2hDon2xtBZJ7j7-mJ-3">
          <mxGeometry relative="1" as="geometry" />
        </mxCell>
        <mxCell id="7n_2hDon2xtBZJ7j7-mJ-19" value="B4" style="ellipse;whiteSpace=wrap;html=1;align=center;fontFamily=Helvetica;fontSize=11;fontColor=default;" vertex="1" parent="1">
          <mxGeometry x="570" y="110" width="60" height="30" as="geometry" />
        </mxCell>
        <mxCell id="7n_2hDon2xtBZJ7j7-mJ-28" style="edgeStyle=none;shape=connector;rounded=0;orthogonalLoop=1;jettySize=auto;html=1;entryX=0.5;entryY=0;entryDx=0;entryDy=0;labelBackgroundColor=default;strokeColor=default;align=center;verticalAlign=middle;fontFamily=Helvetica;fontSize=11;fontColor=default;endArrow=none;endFill=0;" edge="1" parent="1" source="7n_2hDon2xtBZJ7j7-mJ-27" target="7n_2hDon2xtBZJ7j7-mJ-4">
          <mxGeometry relative="1" as="geometry" />
        </mxCell>
        <mxCell id="7n_2hDon2xtBZJ7j7-mJ-27" value="DATA" style="ellipse;whiteSpace=wrap;html=1;align=center;fontFamily=Helvetica;fontSize=11;fontColor=default;" vertex="1" parent="1">
          <mxGeometry x="285" y="70" width="60" height="30" as="geometry" />
        </mxCell>
      </root>
    </mxGraphModel>
  </diagram>
</mxfile>
